<svg xmlns="http://www.w3.org/2000/svg" version="1.1" xmlns:xlink="http://www.w3.org/1999/xlink" xmlns:svgjs="http://svgjs.dev/svgjs" width="100%" height="100%" viewBox="0 0 1000 600"><rect width="1000" height="600" x="0" y="0" fill="#1c1c1c"/><g><rect width="333.3333333333333" height="333.3333333333333" y="285.9989077256769" fill="#fafaff" transform="matrix(0.4738857264369694,0,0,0.4738857264369694,0,85.4882468504661)" x="263.77667236328125"/><path d="M325.79834032217036 527.6655792355882L279.381617418039 527.6655792355882L279.381617418039 377.6655761980056L325.79834032217036 377.6655761980056Q347.0325809645178 377.6655761980056 361.2661578950913 383.8367773846879Q375.49973482566486 390.0411570723738 384.0266095836075 400.7578128965585Q392.5203058405464 411.47446872074323 396.1367624499463 424.77904762321407Q399.75321905934607 438.0836265256849 399.75321905934607 452.54945296328407L399.75321905934607 452.54945296328407Q399.75321905934607 466.08628137278055 396.1367624499463 479.4903957782624Q392.5203058405464 492.8945101837442 384.0266095836075 503.74388001194365Q375.49973482566486 514.593249840143 361.2661578950913 521.1294145378656Q347.0325809645178 527.6655792355882 325.79834032217036 527.6655792355882L325.79834032217036 527.6655792355882ZM299.91910953930943 395.8473947480157L299.91910953930943 509.48376068557815L326.29601783722535 509.48376068557815Q350.5495020709066 509.48376068557815 364.78307900148013 494.6529707369386Q379.01665593205365 479.8553592893027 379.01665593205365 452.54945296328407L379.01665593205365 452.54945296328407Q379.01665593205365 424.77904762321407 364.78307900148013 410.31322118561485Q350.5495020709066 395.8473947480157 326.29601783722535 395.8473947480157L326.29601783722535 395.8473947480157L299.91910953930943 395.8473947480157ZM449.22236405581486 527.6655792355882L428.68487193454445 527.6655792355882L428.68487193454445 377.6655761980056L461.59794493018296 377.6655761980056L504.96224574197686 498.7339263603898L548.5919745618002 377.6655761980056L581.5050475574387 377.6655761980056L581.5050475574387 527.6655792355882L560.9675554361683 527.6655792355882L560.9675554361683 397.50631979819906L512.9250859828571 527.6655792355882L496.5680849880489 527.6655792355882L449.22236405581486 398.66756733332744L449.22236405581486 527.6655792355882Z " fill="#1c1c1c" transform="matrix(0.4738857264369694,0,0,0.4738857264369694,0,85.4882468504661)"/><path d="M726.0133687696737 524.9294177717657L680.4433392163337 524.9294177717657L680.4433392163337 377.66558388280913L726.0133687696737 377.66558388280913Q746.8602729255977 377.66558388280913 760.8342133676153 383.7242154031245Q774.8081538096333 389.81542021118355 783.1794887597464 400.3365921523764Q791.518250422116 410.85776409356924 795.0687387861717 423.9196524787654Q798.6192271502276 436.98154086396147 798.6192271502276 451.18349432018465L798.6192271502276 451.18349432018465Q798.6192271502276 464.47339571958616 795.0687387861717 477.63300396801316Q791.518250422116 490.7926122164401 783.1794887597464 501.4440773086075Q774.8081538096333 512.0955424007749 760.8342133676153 518.5124800862702Q746.8602729255977 524.9294177717657 726.0133687696737 524.9294177717657L726.0133687696737 524.9294177717657ZM700.6062043296414 395.51574556631897L700.6062043296414 507.0792560882557L726.5019680858281 507.0792560882557Q750.3130414264226 507.0792560882557 764.2869818684403 492.51899646685257Q778.2609223104581 477.99131013319305 778.2609223104581 451.18349432018465L778.2609223104581 451.18349432018465Q778.2609223104581 423.9196524787654 764.2869818684403 409.7176990225422Q750.3130414264226 395.51574556631897 726.5019680858281 395.51574556631897L726.5019680858281 395.51574556631897L700.6062043296414 395.51574556631897ZM859.5638485185614 527.6655739422306L859.5638485185614 527.6655739422306Q850.866780691012 527.6655739422306 841.8114066982824 524.4733917433548Q832.756032705553 521.2486362567352 826.5671080342631 514.6362588447782Q820.3781833629732 507.99130814507737 820.3781833629732 498.12160195875714L820.3781833629732 498.12160195875714Q820.3781833629732 486.4603649465372 825.5573361142106 479.1313752042202Q830.7039155777043 471.80238546190316 839.0426772400738 467.79587106943654Q847.414012190187 463.78935667696993 857.1534252255328 462.2909854407629Q866.8928382608785 460.79261420455583 875.8179191026334 460.79261420455583L875.8179191026334 460.79261420455583L889.7918595446512 460.79261420455583Q889.7918595446512 446.8186737625381 885.65505200121 440.5320292280173Q881.5508177455124 434.2453846934964 867.5768773034947 434.2453846934964L867.5768773034947 434.2453846934964Q862.5280177032319 434.2453846934964 857.2511450887637 435.71118264195985Q852.006845762039 437.2095538781669 848.4563573979832 440.76004224222265Q844.9058690339274 444.31053060627846 844.9058690339274 450.4994552775684L844.9058690339274 450.4994552775684L825.8830689916468 450.4994552775684Q825.8830689916468 438.349618949194 831.9417005119623 431.9326812636986Q838.0329053200212 425.5157435782033 847.414012190187 423.00760042194366Q856.7951190603528 420.4994572656841 866.8928382608785 420.4994572656841L866.8928382608785 420.4994572656841Q873.7658019747846 420.4994572656841 881.8765506229488 421.6395223367112Q890.0198725588566 422.7795874077383 896.7625431217882 426.4603689227686Q903.5377869724634 430.1085771500553 906.2739431429286 437.6655799065777L906.2739431429286 437.6655799065777Q907.6420212281611 441.1183484074026 908.000327393341 448.67535116392503Q908.3260602707774 456.23235392044745 908.3260602707774 462.8773046201482L908.3260602707774 462.8773046201482L908.3260602707774 496.2974978451138Q908.3260602707774 503.39847457322537 908.9123794501627 511.997822537544Q909.498698629548 520.564597214119 911.0947897289859 524.9294177717657L911.0947897289859 524.9294177717657L892.9840417435271 524.9294177717657Q892.0719896867054 521.0206232425298 891.5182437950637 517.6004280294485Q890.9319246156783 514.1802328163674 890.4758985872675 510.27143828713156L890.4758985872675 510.27143828713156Q883.3749218591558 519.1965191288864 876.5019581452497 523.4310465355586Q869.6289944313435 527.6655739422306 859.5638485185614 527.6655739422306ZM859.5638485185614 513.9196465144182L859.5638485185614 513.9196465144182Q872.3651506018085 513.9196465144182 878.7820882873038 508.54505403671914Q885.1990259727992 503.17046155901994 887.3814362516225 494.24538071726505Q889.5638465304457 485.3202998755101 889.5638465304457 474.7665546465736L889.5638465304457 474.7665546465736Q887.9677554310078 474.5385416323682 884.6452800811575 474.3105286181628Q881.3228047313071 474.08251560395735 879.2381143157147 474.08251560395735L879.2381143157147 474.08251560395735Q874.2218280031955 474.08251560395735 867.4465841525202 474.994567660779Q860.7039135895885 475.9066197176007 854.2869759040932 478.3170430106294Q847.8700382185979 480.7274663036581 843.6355108119258 484.96199371033015Q839.4009834052538 489.1965211170022 839.4009834052538 495.84147181670295L839.4009834052538 495.84147181670295Q839.4009834052538 504.31052663004704 845.3618950623382 509.13137321610446Q851.3228067194227 513.9196465144182 859.5638485185614 513.9196465144182ZM987.120843322621 524.9294177717657L968.5866425964949 524.9294177717657L926.2087952420309 423.00760042194366L947.5117254263655 423.00760042194366L978.8798015234825 502.71443553060914L1009.7918515921883 423.00760042194366L1029.2706776628797 423.00760042194366L987.120843322621 524.9294177717657ZM1065.0035743176431 524.9294177717657L1046.4368003037735 524.9294177717657L1046.4368003037735 423.00760042194366L1065.0035743176431 423.00760042194366L1065.0035743176431 524.9294177717657ZM1065.6876133602595 396.4277976231407L1045.752761261157 396.4277976231407L1045.752761261157 377.66558388280913L1065.6876133602595 377.66558388280913L1065.6876133602595 396.4277976231407ZM1136.9253936555806 527.6655739422306L1136.9253936555806 527.6655739422306Q1125.0035703414117 527.6655739422306 1114.124092235039 520.922903379299Q1103.2446141286662 514.1802328163674 1096.3716504147599 502.4864225164037Q1089.4986867008538 490.7926122164401 1089.4986867008538 475.9066197176007L1089.4986867008538 475.9066197176007Q1089.4986867008538 466.5255128474349 1091.681096979677 456.91639296306374Q1093.8635072585002 447.2746997909489 1098.7820737077886 438.9359381285793Q1103.700640157077 430.56460317846614 1111.7136689420104 425.5157435782033Q1119.7266977269435 420.4994572656841 1131.6485210411124 420.4994572656841L1131.6485210411124 420.4994572656841Q1142.6257190107162 420.4994572656841 1152.0393991686256 424.3756785071762Q1161.4205060387915 428.28447303641195 1167.1534046816705 436.2975018213452L1167.1534046816705 436.2975018213452L1167.1534046816705 377.66558388280913L1185.2315793793857 377.66558388280913L1185.2315793793857 524.9294177717657L1167.1534046816705 524.9294177717657L1167.1534046816705 513.235607471802Q1162.7885841240238 518.2844670720649 1154.8732752023216 522.9750205071477Q1146.9905395683627 527.6655739422306 1136.9253936555806 527.6655739422306ZM1137.609432698197 513.0075944575965L1137.609432698197 513.0075944575965Q1147.674578610979 513.0075944575965 1154.0915162964743 507.0792560882557Q1160.5084539819698 501.1183444311712 1163.47262316664 492.1932635894163Q1166.4693656390543 483.2356094599177 1166.4693656390543 474.7665546465736L1166.4693656390543 474.7665546465736Q1166.4693656390543 463.5613436627645 1162.4628512465874 454.04994364162417Q1158.4237635663774 444.5385436204839 1151.3553601260094 438.57763196339937Q1144.2543833978978 432.6167203063149 1134.8407032399882 432.6167203063149L1134.8407032399882 432.6167203063149Q1125.0035703414117 432.6167203063149 1119.1729518353018 438.9359381285793Q1113.309760041448 445.2225826631001 1110.671323734214 454.60368953326594Q1108.0654607147235 464.0173696911753 1108.0654607147235 473.39847656134106L1108.0654607147235 473.39847656134106Q1108.0654607147235 483.9196485025339 1111.7136689420104 492.97502249526343Q1115.3944504570404 502.03039648799285 1122.0394011567414 507.5352821166665Q1128.6517785686983 513.0075944575965 1137.609432698197 513.0075944575965ZM1256.2413466605017 527.6655739422306L1256.2413466605017 527.6655739422306Q1243.6354843037166 527.6655739422306 1234.7104034619615 522.6492876297114Q1225.7853226202064 517.6004280294485 1220.3781568547638 509.5873992445153Q1215.0035643770648 501.57437045958204 1212.495421220805 492.1932635894163Q1209.9872780645455 482.77958343150686 1209.9872780645455 474.08251560395735L1209.9872780645455 474.08251560395735Q1209.9872780645455 464.47339571958616 1212.3651280698305 455.05971556167674Q1214.7755513628592 445.678608691511 1220.280436991533 437.7958730575522Q1225.7853226202064 429.88056413584985 1234.9384164761668 425.190010700767Q1244.0915103321272 420.4994572656841 1257.609424745734 420.4994572656841L1257.609424745734 420.4994572656841Q1272.4954172445737 420.4994572656841 1281.5507912373032 425.4180237149724Q1290.6061652300325 430.3365901642607 1295.1664255141409 437.7958730575522Q1299.7592590859929 445.2225826631001 1301.3553501854308 453.2356114480334Q1302.951441284869 461.2486402329667 1302.951441284869 467.20955189005116L1302.951441284869 467.20955189005116Q1302.951441284869 472.258411490314 1302.2674022422525 476.81867177442234L1302.2674022422525 476.81867177442234L1229.4335308474933 476.81867177442234Q1229.4335308474933 487.37241700335886 1232.2022603057017 495.84147181670295Q1234.9384164761668 504.31052663004704 1240.8993281332514 509.3593862303099Q1246.860239790336 514.4082458305727 1256.6973726889125 514.4082458305727L1256.6973726889125 514.4082458305727Q1266.0784795590782 514.4082458305727 1271.583365187752 510.72746431554236Q1277.0882508164254 507.0792560882557 1279.5963939726853 501.9001033370184Q1282.104537128945 496.7535238735246 1282.788576171561 492.42127660362166L1282.788576171561 492.42127660362166L1302.2674022422525 492.42127660362166Q1300.89932415702 500.6623184027604 1295.7527446935264 508.7730670509245Q1290.6061652300325 516.9163889868323 1280.9644720579176 522.2909814645315Q1271.3553521735466 527.6655739422306 1256.2413466605017 527.6655739422306ZM1229.4335308474933 463.5613436627645L1229.4335308474933 463.5613436627645L1282.788576171561 463.5613436627645Q1283.0165891857664 462.38870530399373 1283.0165891857664 461.2486402329667Q1283.0165891857664 460.10857516193954 1283.0165891857664 458.9685100909125L1283.0165891857664 458.9685100909125Q1283.0165891857664 452.32355939121175 1280.508446029507 446.49294088510175Q1278.0003028732472 440.62974909124813 1272.2674042303681 436.98154086396147Q1266.534505587489 433.30075934893114 1256.6973726889125 433.30075934893114L1256.6973726889125 433.30075934893114Q1246.860239790336 433.30075934893114 1241.2250610106876 438.4799121001685Q1235.6224555187832 443.6264915636622 1232.984019211549 450.59717514079927Q1230.345582904315 457.60043200568 1229.4335308474933 463.5613436627645ZM1436.4693477460128 524.9294177717657L1416.3390559204486 524.9294177717657L1416.3390559204486 377.66558388280913L1448.6191840743872 377.66558388280913L1491.225044443057 496.52551085931924L1534.058917825932 377.66558388280913L1566.3390459798702 377.66558388280913L1566.3390459798702 524.9294177717657L1546.1761808665624 524.9294177717657L1546.1761808665624 397.1444099535006L1499.0100602137845 524.9294177717657L1482.9840026439183 524.9294177717657L1436.4693477460128 398.28447502452764L1436.4693477460128 524.9294177717657ZM1639.400930388835 527.6655739422306L1639.400930388835 527.6655739422306Q1626.7950680320496 527.6655739422306 1617.869987190295 522.6492876297114Q1608.94490634854 517.6004280294485 1603.5703138708404 509.5873992445153Q1598.163148105398 501.57437045958204 1595.6550049491384 492.1932635894163Q1593.1468617928786 482.77958343150686 1593.1468617928786 474.08251560395735L1593.1468617928786 474.08251560395735Q1593.1468617928786 464.47339571958616 1595.5572850859076 455.05971556167674Q1597.9351350911925 445.678608691511 1603.4400207198662 437.7958730575522Q1608.94490634854 429.88056413584985 1618.0980002045003 425.190010700767Q1627.2510940604607 420.4994572656841 1640.7690084740675 420.4994572656841L1640.7690084740675 420.4994572656841Q1655.655000972907 420.4994572656841 1664.7103749656362 425.4180237149724Q1673.7657489583657 430.3365901642607 1678.3260092424744 437.7958730575522Q1682.9188428143261 445.2225826631001 1684.514933913764 453.2356114480334Q1686.1110250132022 461.2486402329667 1686.1110250132022 467.20955189005116L1686.1110250132022 467.20955189005116Q1686.1110250132022 472.258411490314 1685.4269859705857 476.81867177442234L1685.4269859705857 476.81867177442234L1612.5931145758266 476.81867177442234Q1612.5931145758266 487.37241700335886 1615.3618440340351 495.84147181670295Q1618.0980002045003 504.31052663004704 1624.0589118615846 509.3593862303099Q1630.019823518669 514.4082458305727 1639.8569564172458 514.4082458305727L1639.8569564172458 514.4082458305727Q1649.2380632874115 514.4082458305727 1654.7429489160854 510.72746431554236Q1660.247834544759 507.0792560882557 1662.7559777010185 501.9001033370184Q1665.2966941450218 496.7535238735246 1665.9807331876382 492.42127660362166L1665.9807331876382 492.42127660362166L1685.4269859705857 492.42127660362166Q1684.0589078853532 500.6623184027604 1678.9123284218595 508.7730670509245Q1673.7657489583657 516.9163889868323 1664.1240557862511 522.2909814645315Q1654.5149359018797 527.6655739422306 1639.400930388835 527.6655739422306ZM1612.5931145758266 463.5613436627645L1612.5931145758266 463.5613436627645L1665.9807331876382 463.5613436627645Q1666.2087462018435 462.38870530399373 1666.2087462018435 461.2486402329667Q1666.2087462018435 460.10857516193954 1666.2087462018435 458.9685100909125L1666.2087462018435 458.9685100909125Q1666.2087462018435 452.32355939121175 1663.6680297578403 446.49294088510175Q1661.1598866015806 440.62974909124813 1655.4269879587014 436.98154086396147Q1649.7266626035662 433.30075934893114 1639.8569564172458 433.30075934893114L1639.8569564172458 433.30075934893114Q1630.019823518669 433.30075934893114 1624.4172180267647 438.4799121001685Q1618.7820392471165 443.6264915636622 1616.1436029398824 450.59717514079927Q1613.5377399203917 457.60043200568 1612.5931145758266 463.5613436627645ZM1728.944898396077 524.9294177717657L1710.4106976699509 524.9294177717657L1710.4106976699509 377.66558388280913L1728.944898396077 377.66558388280913L1728.944898396077 524.9294177717657ZM1799.7266526629874 527.6655739422306L1799.7266526629874 527.6655739422306Q1787.1207903062023 527.6655739422306 1778.1957094644472 522.6492876297114Q1769.2706286226921 517.6004280294485 1763.896036144993 509.5873992445153Q1758.4888703795505 501.57437045958204 1755.9807272232906 492.1932635894163Q1753.4725840670312 482.77958343150686 1753.4725840670312 474.08251560395735L1753.4725840670312 474.08251560395735Q1753.4725840670312 464.47339571958616 1755.8504340723161 455.05971556167674Q1758.2608573653451 445.678608691511 1763.7657429940186 437.7958730575522Q1769.2706286226921 429.88056413584985 1778.4237224786525 425.190010700767Q1787.5768163346129 420.4994572656841 1801.0947307482202 420.4994572656841L1801.0947307482202 420.4994572656841Q1815.9807232470594 420.4994572656841 1825.036097239789 425.4180237149724Q1834.0914712325184 430.3365901642607 1838.6517315166266 437.7958730575522Q1843.2445650884788 445.2225826631001 1844.8406561879165 453.2356114480334Q1846.4367472873546 461.2486402329667 1846.4367472873546 467.20955189005116L1846.4367472873546 467.20955189005116Q1846.4367472873546 472.258411490314 1845.7527082447382 476.81867177442234L1845.7527082447382 476.81867177442234L1772.918836849979 476.81867177442234Q1772.918836849979 487.37241700335886 1775.6875663081878 495.84147181670295Q1778.4237224786525 504.31052663004704 1784.3846341357375 509.3593862303099Q1790.3455457928217 514.4082458305727 1800.1826786913985 514.4082458305727L1800.1826786913985 514.4082458305727Q1809.5637855615641 514.4082458305727 1815.0686711902376 510.72746431554236Q1820.5735568189111 507.0792560882557 1823.081699975171 501.9001033370184Q1825.6224164191744 496.7535238735246 1826.3064554617904 492.42127660362166L1826.3064554617904 492.42127660362166L1845.7527082447382 492.42127660362166Q1844.3846301595058 500.6623184027604 1839.2380506960121 508.7730670509245Q1834.0914712325184 516.9163889868323 1824.4497780604033 522.2909814645315Q1814.8406581760323 527.6655739422306 1799.7266526629874 527.6655739422306ZM1772.918836849979 463.5613436627645L1772.918836849979 463.5613436627645L1826.3064554617904 463.5613436627645Q1826.5344684759962 462.38870530399373 1826.5344684759962 461.2486402329667Q1826.5344684759962 460.10857516193954 1826.5344684759962 458.9685100909125L1826.5344684759962 458.9685100909125Q1826.5344684759962 452.32355939121175 1823.9937520319927 446.49294088510175Q1821.4856088757333 440.62974909124813 1815.752710232854 436.98154086396147Q1810.0198115899748 433.30075934893114 1800.1826786913985 433.30075934893114L1800.1826786913985 433.30075934893114Q1790.3455457928217 433.30075934893114 1784.7103670131737 438.4799121001685Q1779.107761521269 443.6264915636622 1776.469325214035 450.59717514079927Q1773.8308889068007 457.60043200568 1772.918836849979 463.5613436627645Z " fill="#fafaff" transform="matrix(0.4738857264369694,0,0,0.4738857264369694,0,85.4882468504661)"/></g></svg>